<?xml version="1.0" standalone="no"?>
<!DOCTYPE svg PUBLIC "-//W3C//DTD SVG 20010904//EN"
 "http://www.w3.org/TR/2001/REC-SVG-20010904/DTD/svg10.dtd">
<svg version="1.0" xmlns="http://www.w3.org/2000/svg"
 width="5209.000000pt" height="5209.000000pt" viewBox="0 0 5209.000000 5209.000000"
 preserveAspectRatio="xMidYMid meet">

<g transform="translate(0.000000,5209.000000) scale(0.100000,-0.100000)"
fill="#000000" stroke="none">
<path d="M24280 45107 c-3 -2 -99 -7 -215 -11 -115 -4 -237 -9 -270 -11 -33
-3 -134 -10 -225 -15 -150 -10 -494 -40 -630 -55 -256 -29 -295 -36 -307 -52
-17 -22 -16 -35 1 -58 13 -19 19 -18 276 8 332 35 675 63 950 77 118 6 249 12
290 15 90 5 1108 6 1165 1 22 -2 114 -7 205 -10 91 -4 192 -9 225 -11 33 -3
152 -12 265 -21 875 -65 1828 -220 2649 -429 142 -35 163 -35 176 6 13 41 -17
56 -234 108 -829 201 -1741 349 -2496 406 -44 3 -98 8 -120 10 -22 2 -125 9
-230 15 -104 6 -217 13 -250 15 -81 7 -1219 18 -1225 12z"/>
<path d="M29621 44575 c-211 -59 -351 -243 -351 -460 0 -344 348 -569 657
-425 238 110 335 411 211 654 -27 53 -121 150 -173 180 -105 58 -244 79 -344
51z m261 -117 c75 -35 142 -103 181 -186 29 -60 32 -76 32 -158 -1 -82 -4 -98
-33 -157 -41 -83 -100 -142 -182 -181 -57 -27 -76 -31 -150 -31 -71 0 -94 4
-140 26 -95 44 -165 120 -204 218 -25 65 -24 191 3 263 22 57 88 140 142 179
92 65 242 77 351 27z"/>
<path d="M24109 44066 c-2 -2 -98 -7 -214 -11 -115 -4 -212 -8 -215 -10 -3 -1
-59 -6 -125 -9 -627 -35 -1502 -154 -2255 -306 -369 -75 -490 -104 -501 -121
-15 -24 -10 -48 14 -63 20 -13 35 -12 152 15 918 207 1984 354 2860 394 66 3
155 8 198 11 128 9 949 11 1147 3 260 -10 458 -20 505 -24 22 -2 81 -6 130
-10 598 -41 1289 -134 1920 -259 93 -19 175 -31 183 -29 25 10 34 43 18 67
-13 21 -42 29 -253 70 -599 116 -1248 204 -1778 241 -44 3 -102 8 -130 10
-282 24 -593 33 -1126 34 -290 0 -528 -1 -530 -3z"/>
<path d="M43129 42456 c-2 -2 -735 -6 -1629 -10 -894 -3 -1906 -8 -2250 -11
-725 -6 -2066 -13 -3865 -20 -698 -3 -1416 -8 -1595 -10 -179 -2 -5041 -5
-10805 -5 -6624 -1 -10501 -5 -10538 -11 -196 -32 -356 -196 -441 -451 -29
-84 -35 -128 -156 -1063 -133 -1025 -136 -1049 -169 -1300 -17 -126 -42 -320
-56 -430 -14 -110 -33 -252 -41 -315 -8 -63 -19 -146 -24 -185 -23 -177 -81
-623 -85 -650 -4 -31 -102 -781 -135 -1040 -26 -204 -46 -352 -69 -530 -19
-138 -34 -260 -90 -695 -11 -85 -29 -222 -40 -305 -11 -82 -32 -240 -46 -350
-41 -314 -86 -665 -185 -1420 -50 -385 -104 -803 -121 -930 -16 -126 -31 -243
-34 -260 -2 -16 -29 -223 -60 -460 -31 -236 -62 -482 -71 -545 -8 -63 -24
-185 -34 -270 -11 -85 -22 -171 -25 -190 -3 -19 -9 -69 -15 -110 -5 -41 -19
-147 -30 -235 -12 -88 -32 -243 -45 -345 -13 -102 -49 -374 -79 -605 -31 -231
-73 -559 -95 -730 -22 -170 -65 -499 -95 -730 -53 -403 -97 -741 -116 -890 -9
-71 -89 -684 -156 -1200 -20 -154 -37 -281 -38 -282 -1 0 -35 5 -76 12 -182
31 -438 42 -605 26 -518 -51 -909 -245 -1285 -638 -283 -296 -522 -639 -710
-1018 -140 -284 -225 -510 -300 -800 -93 -359 -126 -632 -124 -1020 4 -589
145 -1172 424 -1753 119 -246 197 -381 420 -722 451 -692 804 -1361 1063
-2015 41 -104 77 -197 79 -205 2 -9 -31 -56 -73 -105 -483 -573 -785 -1264
-883 -2015 -18 -141 -25 -222 -32 -415 -3 -82 -6 -150 -8 -152 -1 -1 -38 19
-81 45 -98 59 -125 70 -195 81 -150 24 -313 -64 -381 -207 -14 -31 -24 -73
-27 -123 -4 -73 1 -95 157 -665 202 -743 260 -927 406 -1299 131 -334 338
-760 519 -1070 178 -303 495 -759 695 -1000 215 -257 629 -674 911 -915 1382
-1184 3224 -1955 5460 -2285 119 -18 499 -50 1180 -100 553 -41 1052 -78 1110
-82 58 -4 150 -7 205 -6 55 1 128 2 161 3 49 1 66 5 80 21 18 20 18 22 -20 92
-517 964 -817 1806 -923 2587 -14 103 -18 200 -18 410 0 151 4 288 8 305 8 28
13 21 82 -123 71 -146 75 -152 104 -152 16 0 33 5 36 11 4 5 20 -11 37 -37 60
-95 128 -142 276 -193 l103 -36 150 -285 c83 -157 193 -368 246 -470 123 -236
186 -346 286 -495 552 -828 1376 -1412 2342 -1660 231 -59 439 -93 714 -116
117 -10 784 -6 1016 6 50 3 236 7 415 10 179 3 379 8 445 10 66 2 269 7 450
10 182 3 380 7 440 10 61 3 241 7 400 10 160 3 353 7 430 10 77 3 266 7 420
10 154 3 334 7 400 10 66 3 237 7 380 10 143 3 314 7 380 10 66 3 230 7 365
10 135 3 301 7 370 10 69 3 211 7 315 10 205 6 635 21 910 31 247 10 326 -11
539 -143 479 -296 921 -376 1454 -262 194 41 561 176 717 264 37 20 121 78
187 129 66 50 126 95 133 100 8 6 102 -37 291 -136 156 -82 310 -155 349 -167
39 -11 282 -68 540 -126 259 -58 498 -112 533 -120 66 -16 94 -11 106 21 4 9
0 27 -9 40 -24 38 -773 866 -812 899 -20 17 -158 109 -307 206 l-271 175 -6
80 c-7 100 -40 175 -101 235 -82 80 -279 152 -456 166 -64 5 -85 10 -89 22
-76 253 -256 468 -488 584 -199 99 -425 138 -614 105 l-69 -12 -108 71 c-1039
674 -1369 886 -1405 899 -23 7 -59 14 -81 14 -59 0 -115 33 -146 87 -50 86
-93 122 -343 285 -456 299 -1187 741 -1262 763 -67 20 -171 19 -233 -2 -74
-24 -151 -80 -191 -137 -67 -97 -333 -561 -349 -609 -43 -130 -1 -301 99 -401
43 -43 914 -573 1077 -656 47 -23 173 -89 282 -146 198 -105 244 -122 331
-123 61 0 107 -28 147 -87 41 -58 69 -77 245 -169 268 -139 800 -417 804 -421
11 -10 -41 -34 -117 -55 -78 -21 -93 -22 -325 -15 -133 4 -262 9 -287 12 -25
2 -139 11 -255 19 -115 8 -235 17 -265 20 -301 28 -604 56 -642 60 -27 3 -69
7 -95 10 -1049 109 -2189 283 -3043 466 -1583 339 -2598 748 -3057 1233 l-89
94 -96 223 c-52 123 -193 449 -311 724 l-215 500 38 171 c56 246 71 357 76
544 5 210 -10 335 -82 690 -97 481 -257 1083 -412 1555 -380 1151 -887 2133
-1448 2801 -447 532 -1338 975 -2609 1297 -345 88 -788 179 -1085 223 -63 9
-118 19 -122 23 -3 3 -9 74 -12 156 -4 83 -9 191 -11 240 -13 269 -16 594 -6
614 10 19 20 21 89 21 433 1 733 164 907 493 44 84 93 213 114 302 l12 50 822
-2 c452 -1 2321 -4 4152 -7 1832 -3 3331 -6 3333 -6 1 0 1 -627 -1 -1392 -4
-1525 1 -1407 -63 -1608 -117 -370 -402 -703 -774 -903 -66 -36 -1720 -748
-2335 -1005 -119 -51 -178 -97 -190 -151 -4 -17 -12 -31 -19 -31 -17 0 -26
-167 -26 -460 0 -263 8 -298 81 -364 26 -23 65 -48 87 -54 30 -9 795 -12 3238
-12 3432 0 3269 -2 3505 50 53 11 148 38 210 59 150 50 3569 1489 3679 1548
154 82 260 162 396 298 237 237 372 489 425 793 18 110 19 175 19 1668 l0
1555 2741 -7 2740 -7 -3 49 -3 49 -40 1 c-22 1 -2123 4 -4670 8 -2546 3 -5321
8 -6165 11 -844 3 -3692 8 -6328 11 l-4794 7 6 31 c19 106 28 313 22 503 -3
116 -6 215 -7 220 -1 4 -1 13 0 18 1 7 341 9 1029 8 565 -2 4357 -7 8427 -13
4070 -5 8553 -13 9963 -16 l2562 -7 0 52 0 51 -1152 0 c-634 0 -2316 3 -3738
6 -4376 9 -13203 23 -15199 24 -1041 0 -1897 3 -1902 6 -5 3 -9 22 -9 43 0 36
8 47 108 147 87 87 112 119 125 158 35 102 18 172 -71 295 -27 36 -51 71 -55
78 -5 7 7 35 27 65 82 123 111 258 104 474 -8 207 -53 405 -150 649 -43 107
-61 135 -89 135 -10 0 -74 -29 -142 -65 l-125 -65 -7 42 c-11 65 -72 250 -122
368 -44 105 -185 381 -229 452 -13 21 -24 42 -24 46 0 5 52 44 115 86 160 108
215 178 251 319 37 141 -18 314 -174 552 -74 112 -243 289 -356 373 -639 470
-1716 526 -3131 162 -296 -77 -470 -140 -672 -245 -73 -38 -123 -59 -123 -51
0 7 16 131 35 277 19 145 41 318 49 384 9 66 38 291 65 500 28 209 62 468 75
575 14 107 41 317 61 465 19 149 46 358 60 465 14 107 28 209 30 225 2 17 11
85 19 150 15 117 136 1045 176 1355 12 85 23 171 25 190 14 102 28 210 45 345
11 83 28 218 39 300 11 83 32 238 46 345 13 107 38 301 55 430 17 129 37 285
45 345 8 61 28 214 44 340 17 127 67 509 111 850 44 341 83 636 85 655 3 19
16 121 30 225 30 232 32 245 45 353 6 48 13 98 15 112 2 14 34 255 70 535 36
281 72 557 80 615 8 58 19 146 25 195 6 50 13 101 15 115 2 14 9 61 14 105 6
44 20 152 31 240 12 88 32 243 45 345 13 102 49 374 79 605 31 231 73 560 95
730 49 376 168 1290 216 1660 20 149 47 358 61 465 14 107 34 229 45 270 40
149 136 288 240 345 l54 30 14480 3 c11012 2 14497 0 14550 -9 253 -42 502
-234 628 -484 57 -114 79 -197 84 -320 5 -118 15 -32 -171 -1480 -47 -363
-103 -802 -125 -975 -22 -173 -49 -385 -60 -470 -41 -316 -212 -1651 -232
-1810 -11 -91 -22 -179 -25 -195 -5 -31 -24 -188 -64 -510 -13 -99 -26 -184
-30 -188 -5 -5 -40 -15 -79 -23 -40 -7 -147 -34 -238 -59 -107 -30 -169 -43
-175 -37 -6 6 -13 75 -17 153 -9 162 -24 208 -83 251 -29 20 -45 23 -118 23
-70 -1 -113 -9 -250 -48 -318 -90 -525 -130 -680 -131 -131 -1 -150 4 -209 59
-81 76 -139 89 -272 61 -211 -45 -395 -235 -482 -498 -40 -118 -50 -187 -45
-300 6 -135 39 -220 114 -295 68 -68 118 -84 293 -89 74 -3 136 -6 137 -7 1
-1 -33 -72 -75 -158 -78 -159 -87 -173 -320 -455 -81 -97 -77 -118 40 -219 91
-79 85 -55 70 -275 -24 -349 -24 -351 1 -399 13 -25 35 -54 49 -64 15 -11 129
-55 255 -98 125 -43 238 -86 250 -94 13 -8 27 -27 30 -41 8 -33 -94 -710 -112
-744 -34 -62 -35 -63 -171 -72 -623 -39 -1215 -147 -1553 -283 -385 -155 -728
-391 -1085 -749 -316 -317 -607 -704 -865 -1151 -134 -232 -382 -736 -369
-750 5 -5 249 -41 476 -71 l133 -18 9 -30 c6 -17 37 -128 70 -246 33 -118 121
-435 196 -704 108 -388 133 -491 124 -502 -27 -33 -305 -282 -420 -376 -234
-192 -521 -393 -659 -463 -203 -102 -452 -130 -680 -75 -105 25 -281 111 -374
181 -81 62 19 -50 -1293 1454 -575 659 -1061 1206 -1088 1227 -53 41 -126 66
-260 91 -282 51 -481 232 -556 502 -35 127 -19 243 46 345 96 152 118 238 89
350 -21 80 -50 122 -169 250 -59 63 -120 137 -136 165 -51 89 -49 184 5 234
l25 24 73 -63 c40 -34 164 -138 274 -231 111 -93 230 -199 264 -236 72 -79
172 -227 290 -433 199 -345 323 -497 531 -653 41 -30 547 -346 1124 -702 578
-357 1115 -689 1195 -738 202 -126 237 -141 330 -140 139 0 245 63 319 191 21
37 98 170 171 295 73 125 130 230 128 232 -3 3 -25 8 -50 11 l-45 6 -55 -93
c-31 -52 -99 -170 -153 -264 -53 -93 -111 -185 -128 -204 -65 -69 -174 -98
-258 -69 -30 10 -230 130 -679 408 -250 155 -421 261 -715 442 -165 102 -473
292 -685 423 -212 131 -417 262 -456 291 -105 79 -262 248 -336 360 -36 55
-114 182 -173 284 -191 329 -263 418 -473 593 -81 67 -209 174 -284 239 -181
155 -179 154 -228 139 -151 -45 -191 -264 -77 -424 18 -26 79 -96 136 -158
113 -122 151 -187 151 -259 0 -66 -14 -104 -65 -179 -123 -179 -131 -381 -26
-606 111 -235 316 -381 610 -434 111 -20 164 -41 212 -83 14 -13 383 -432 819
-933 1594 -1828 1453 -1670 1575 -1757 83 -59 163 -101 265 -139 l75 -28
-1616 -1 c-1284 0 -1619 -3 -1632 -13 -14 -9 -22 -47 -37 -157 -11 -80 -29
-210 -40 -288 -23 -167 -25 -203 -8 -220 9 -9 620 -12 2689 -12 l2678 0 15 22
c13 19 14 25 2 43 l-13 20 -2643 3 -2642 2 6 38 c5 33 37 271 55 407 l6 50
2515 5 c1383 3 2516 6 2517 8 20 22 23 46 8 68 l-15 24 -633 0 -632 1 59 20
c104 36 180 74 302 154 286 186 588 425 826 653 l86 83 11 -33 c9 -29 280
-999 427 -1533 31 -110 63 -208 71 -217 12 -13 31 -18 71 -18 l54 0 -6 -72
c-7 -89 -13 -180 -26 -408 -6 -96 -13 -195 -15 -220 -2 -25 -7 -99 -10 -165
-3 -66 -8 -158 -10 -205 -3 -47 -8 -116 -10 -155 -2 -38 -7 -133 -10 -210 -3
-77 -8 -158 -10 -180 -2 -22 -7 -128 -10 -235 -4 -107 -8 -206 -10 -220 -2
-14 -7 -131 -11 -260 -3 -129 -8 -257 -9 -285 -9 -148 -12 -1170 -5 -1350 9
-205 34 -513 46 -561 3 -13 14 -24 23 -25 9 0 27 -2 41 -4 14 -2 117 -11 230
-19 865 -64 1489 -33 1845 91 201 70 306 102 481 147 483 122 1093 213 1629
244 166 9 698 9 835 0 340 -23 636 -78 874 -161 l98 -35 -6 297 c-4 163 -9
339 -11 391 -2 52 -6 194 -10 315 -6 238 -12 450 -20 725 -3 96 -10 335 -15
530 -19 689 -20 746 -25 895 -3 83 -7 247 -10 365 -3 118 -7 274 -10 345 -3
72 -8 227 -11 346 l-6 216 198 6 c324 11 473 45 555 127 195 195 335 930 365
1912 7 227 7 229 -41 241 -11 2 60 5 158 6 l178 1 -6 178 c-3 97 -8 193 -10
212 -2 19 -7 71 -10 115 -27 350 -120 808 -234 1155 -320 967 -896 1613 -1725
1937 -314 122 -767 237 -1176 299 l-115 17 -109 86 c-185 145 -196 169 -277
572 -60 299 -61 306 -56 429 7 147 33 246 103 380 64 122 54 115 164 115 102
0 140 13 207 69 l30 25 -8 -58 c-5 -32 -33 -251 -63 -487 -30 -236 -71 -559
-92 -718 -40 -316 -41 -306 23 -306 39 0 35 -16 68 245 30 244 101 793 154
1205 l39 306 78 124 c331 535 449 754 498 924 57 196 11 449 -105 581 -40 45
-64 57 -166 86 -46 12 -83 26 -83 32 0 5 7 55 15 111 8 55 37 279 65 496 27
217 61 485 75 595 14 110 27 214 30 230 2 17 27 210 55 430 28 220 52 414 55
430 4 29 54 419 115 900 17 132 32 254 35 272 3 18 14 103 25 190 10 87 69
545 130 1018 99 762 111 872 106 965 -10 226 -110 442 -286 620 -127 128 -268
210 -447 262 l-78 23 -14510 0 c-14316 0 -14511 0 -14562 -19 -99 -37 -206
-135 -273 -251 -72 -126 -94 -234 -174 -880 -13 -104 -156 -1198 -171 -1310
-3 -22 -17 -128 -31 -235 -13 -107 -29 -226 -34 -265 -10 -76 -53 -405 -75
-580 -8 -60 -44 -333 -79 -605 -36 -272 -70 -535 -76 -585 -6 -49 -13 -101
-15 -115 -2 -14 -9 -63 -15 -110 -6 -47 -13 -101 -15 -120 -3 -19 -9 -69 -15
-110 -17 -135 -49 -382 -69 -535 -11 -82 -32 -238 -46 -345 -13 -107 -36 -280
-50 -385 -13 -104 -60 -469 -104 -810 -44 -341 -85 -651 -91 -690 -8 -56 -40
-305 -95 -735 -5 -39 -53 -405 -60 -460 -3 -19 -9 -69 -15 -110 -10 -82 -70
-545 -125 -960 -31 -240 -43 -331 -90 -695 -20 -152 -38 -295 -80 -615 -20
-151 -42 -324 -50 -385 -8 -60 -28 -216 -45 -345 -17 -129 -51 -388 -75 -575
-24 -187 -69 -529 -99 -760 -58 -442 -101 -773 -116 -890 -16 -123 -100 -768
-105 -811 -9 -65 -42 -79 -190 -80 -95 0 -134 -5 -187 -23 -84 -27 -202 -105
-264 -174 -35 -39 -117 -152 -140 -195 -1 -2 -23 2 -48 9 -43 11 -47 14 -42
38 3 14 19 132 36 261 16 129 52 406 79 615 28 209 57 434 65 500 12 90 133
1022 170 1305 23 173 71 542 91 700 46 354 55 424 65 495 5 39 41 315 80 615
39 300 72 559 75 575 2 17 9 68 15 115 6 47 13 99 15 115 2 17 18 136 34 265
17 129 46 357 66 505 19 149 53 410 75 580 22 171 43 324 45 340 2 17 36 275
74 575 39 300 78 595 86 655 8 61 26 198 40 305 14 107 34 263 45 345 11 83
31 238 45 345 13 107 65 506 115 885 49 380 92 710 95 735 3 25 14 110 25 190
11 80 31 233 45 340 43 340 85 664 90 695 2 17 22 172 45 345 22 173 42 329
45 345 2 17 22 172 44 345 22 173 45 347 51 385 5 39 32 246 60 460 27 215 54
422 60 460 5 39 14 108 20 155 14 114 15 116 55 425 19 149 49 376 65 505 47
360 67 491 85 545 64 194 188 338 325 379 49 15 1338 16 15341 16 13752 0
15295 -2 15375 -15 171 -30 335 -118 480 -257 178 -171 284 -386 300 -607 6
-87 6 -83 -126 -1116 -11 -82 -47 -364 -80 -625 -33 -261 -63 -491 -65 -510
-14 -100 -49 -372 -75 -580 -16 -129 -52 -408 -79 -620 -27 -212 -72 -565
-101 -785 -28 -220 -53 -416 -55 -435 -10 -77 -58 -446 -105 -820 -28 -217
-52 -411 -55 -430 -12 -86 -59 -458 -160 -1250 -46 -366 -89 -696 -95 -735 -5
-38 -33 -250 -60 -470 -66 -517 -86 -677 -110 -860 -75 -581 -100 -778 -98
-780 2 -1 71 -21 153 -43 285 -78 573 -186 764 -288 46 -24 86 -43 88 -41 2 3
19 123 38 268 36 282 68 529 139 1079 25 190 70 539 101 775 30 237 57 444 60
460 2 17 24 190 50 385 25 195 47 369 50 385 2 17 16 120 30 230 55 428 67
519 110 854 25 190 61 465 80 611 19 146 44 335 54 420 27 210 38 289 131
1005 44 341 98 760 120 930 22 171 44 342 50 380 5 39 28 212 50 385 22 173
42 329 45 345 2 17 38 293 79 615 42 322 80 617 86 655 5 39 31 230 56 425 50
389 51 443 13 595 -42 165 -122 299 -251 420 -88 83 -174 136 -283 173 l-80
27 -626 3 c-344 1 -627 1 -630 -2z m-2828 -8371 c16 -9 87 -68 157 -132 131
-119 313 -261 369 -288 62 -30 109 -20 217 45 81 49 108 60 143 60 53 0 106
-26 152 -74 52 -54 53 -103 2 -245 -23 -63 -41 -122 -41 -130 0 -21 139 -158
211 -208 l57 -39 -39 -65 c-98 -161 -143 -323 -143 -514 -1 -120 4 -152 57
-413 32 -155 67 -308 78 -339 38 -111 104 -188 287 -333 l93 -74 -23 -18 c-43
-34 -372 -194 -453 -220 -177 -58 -273 -72 -495 -72 -173 0 -221 4 -306 22
-128 27 -283 81 -388 134 -142 72 -139 60 -38 137 92 71 183 164 207 212 8 15
19 59 25 96 5 38 30 201 55 363 48 308 49 339 14 397 -30 49 -66 66 -310 149
-148 50 -232 84 -248 99 l-25 24 18 298 18 297 -29 25 c-15 15 -55 49 -87 77
l-59 52 138 168 c125 153 145 183 215 324 42 85 83 165 91 178 16 26 39 28 80
7z m-266 -5437 c8 -29 98 -352 199 -717 181 -647 185 -664 168 -689 -13 -21
-17 -55 -20 -171 -3 -172 -12 -232 -48 -312 -51 -112 -103 -134 -294 -126
-126 6 -268 29 -522 86 -274 62 -419 28 -500 -116 -80 -142 -31 -329 127 -489
92 -94 158 -139 334 -228 281 -142 497 -205 826 -241 77 -8 147 -17 155 -20 8
-2 109 -20 224 -40 115 -19 211 -36 212 -38 4 -4 94 -326 94 -337 0 -7 -514
-10 -1548 -10 l-1548 0 -191 688 c-106 378 -323 1157 -483 1732 -160 575 -293
1053 -296 1063 -5 16 73 17 1545 17 l1550 0 16 -52z m4743 -1115 c-27 -2 -69
-2 -95 0 -27 2 -5 3 47 3 52 0 74 -1 48 -3z m-993 -58 c66 -2 181 -7 255 -10
74 -3 162 -7 195 -10 33 -2 143 -7 244 -11 101 -4 198 -8 215 -10 17 -1 51 -3
75 -3 l44 -1 -7 -207 c-7 -227 -8 -244 -37 -568 -59 -653 -155 -1061 -285
-1205 -60 -66 -170 -95 -405 -108 -125 -7 -615 1 -738 12 -36 3 -151 13 -256
21 -694 56 -1813 202 -2501 326 -88 15 -221 35 -295 43 -295 33 -505 96 -767
228 -225 114 -344 214 -408 343 -30 61 -36 83 -35 134 1 99 34 152 116 187 65
29 165 22 370 -25 261 -59 364 -74 510 -75 103 -1 141 3 183 18 146 50 222
223 222 502 0 93 3 124 13 124 24 0 152 -105 198 -164 63 -78 106 -170 136
-291 54 -219 174 -361 359 -426 137 -48 538 -74 1149 -74 511 0 709 10 945 46
104 15 130 58 164 268 26 162 55 592 56 834 l0 119 83 -6 c45 -3 136 -8 202
-11z m-33012 -1356 c159 -25 327 -109 435 -219 149 -151 228 -361 231 -615 3
-257 -68 -479 -231 -716 -55 -82 -176 -224 -184 -216 -2 1 4 30 12 62 48 181
54 416 15 570 -70 281 -239 503 -524 692 -91 60 -270 153 -295 153 -65 0 96
188 212 247 102 52 191 63 329 42z m4176 -995 c37 -31 117 -172 217 -378 114
-240 178 -427 172 -508 l-3 -40 -419 -215 c-230 -118 -420 -213 -421 -211 -7
7 228 1247 243 1288 23 59 69 90 133 90 36 0 55 -6 78 -26z m24327 -722 c6 -4
39 -61 73 -127 34 -66 100 -176 145 -245 486 -736 1265 -1316 2196 -1635 237
-81 560 -166 783 -206 74 -14 103 -35 92 -68 -13 -41 -35 -42 -192 -11 -765
155 -1436 446 -2008 870 -292 216 -603 523 -816 805 -138 182 -295 437 -335
541 -16 42 -16 45 1 64 19 21 42 25 61 12z m-23556 -223 c85 -221 131 -445
130 -632 -1 -206 -44 -340 -144 -443 -54 -56 -76 -66 -76 -36 -1 45 -90 276
-178 457 l-97 200 1 85 c2 64 10 114 36 204 l35 120 119 62 c65 35 124 64 131
64 6 0 26 -36 43 -81z m-436 -201 c-28 -107 -32 -233 -9 -297 8 -23 49 -113
91 -199 146 -302 193 -456 209 -692 3 -52 13 -156 21 -230 32 -291 41 -423 43
-636 3 -388 -39 -628 -151 -854 -56 -115 -70 -133 -157 -221 -82 -81 -110
-102 -191 -142 -131 -64 -231 -87 -415 -94 -177 -6 -212 -19 -246 -89 -18 -39
-20 -55 -15 -191 3 -81 8 -240 11 -353 5 -191 9 -286 20 -450 2 -36 7 -108 10
-160 4 -52 13 -153 21 -225 8 -71 17 -158 21 -191 15 -160 -80 -325 -230 -398
-94 -46 -618 -168 -902 -211 -600 -89 -1058 -83 -1465 21 -150 39 -197 62
-259 129 -98 106 -111 217 -49 415 60 192 115 493 138 755 11 136 12 440 1
529 -5 38 -4 59 3 61 6 1 47 8 91 15 244 37 614 153 880 275 354 163 669 461
858 815 151 283 243 686 223 974 l-6 88 60 -55 c33 -31 90 -71 128 -89 63 -31
74 -33 172 -33 97 0 110 2 172 32 72 34 95 61 78 92 -16 30 -46 35 -83 13 -91
-55 -206 -60 -303 -12 -106 52 -229 198 -258 305 -8 28 -27 100 -44 160 -51
185 -66 272 -66 390 0 126 16 197 69 312 96 207 208 270 345 191 67 -38 154
-127 216 -219 35 -53 51 -69 69 -69 38 0 52 23 65 108 6 43 15 84 19 90 6 9
818 431 832 432 4 0 -4 -41 -17 -92z m515 -1065 c54 -77 61 -92 61 -135 0 -64
-14 -89 -98 -171 l-69 -69 -7 84 c-4 45 -9 101 -11 123 -2 22 -7 73 -10 114
l-7 75 39 32 c21 18 39 33 40 34 1 0 29 -39 62 -87z m14979 -1583 l593 0 -4
-1392 c-3 -1531 1 -1416 -64 -1613 -126 -384 -421 -717 -808 -913 -111 -56
-2673 -1134 -2782 -1170 -48 -16 -131 -39 -183 -51 -230 -52 -58 -50 -3513
-50 -3445 -1 -3262 -4 -3281 44 -12 33 -6 82 13 99 18 17 273 127 1631 706
796 339 780 332 886 395 475 282 765 716 824 1230 6 57 10 573 10 1409 l0
1319 3043 -6 c1673 -4 3309 -7 3635 -7z m-19801 -586 c160 -139 357 -270 559
-371 l132 -65 7 -56 c4 -31 9 -65 11 -77 14 -60 4 -452 -15 -614 -12 -96 -22
-175 -23 -176 -2 -1 -46 -12 -98 -25 -236 -57 -570 -164 -808 -259 -56 -22
-104 -41 -106 -41 -1 0 17 75 41 168 124 481 175 860 176 1312 0 146 -3 277
-6 293 l-6 27 33 -27 c18 -16 64 -55 103 -89z m3813 -1399 c679 -109 1487
-323 2060 -543 730 -281 1229 -600 1534 -981 546 -681 1007 -1580 1371 -2674
199 -597 370 -1261 471 -1823 33 -186 42 -497 19 -658 -22 -146 -121 -581
-159 -699 -162 -495 -475 -908 -901 -1192 -375 -250 -788 -378 -1225 -379
-198 -1 -294 14 -418 66 -118 49 -143 81 -323 413 -139 256 -160 291 -187 299
-27 9 -45 41 -223 415 -384 808 -355 751 -387 751 -31 0 -52 -16 -52 -39 0 -9
41 -101 91 -206 50 -104 110 -230 134 -280 96 -203 129 -271 245 -515 l122
-255 -18 -135 c-22 -176 -26 -500 -8 -695 58 -614 271 -1319 648 -2137 19 -43
34 -78 31 -78 -5 0 -330 396 -442 540 -421 540 -795 1136 -1117 1780 -165 331
-252 525 -381 850 -216 545 -315 871 -535 1750 -137 547 -143 563 -255 676
-84 85 -182 137 -301 161 -73 14 -106 14 -365 0 -212 -11 -440 -14 -899 -11
-338 2 -640 6 -670 9 -30 2 -131 9 -225 15 -93 6 -190 13 -215 15 -25 2 -121
11 -215 20 -1444 133 -2824 518 -3940 1099 l-160 83 -3 119 c-3 103 11 365 24
459 68 495 177 862 370 1247 144 287 302 530 493 756 l44 53 14 -32 c29 -70
137 -436 184 -624 52 -210 71 -252 131 -299 79 -60 213 -64 293 -9 46 32 149
182 314 458 335 560 574 1064 765 1615 l71 205 140 58 c178 75 535 194 734
246 85 22 156 39 158 37 7 -6 -49 -252 -82 -361 -43 -142 -49 -188 -36 -260
22 -120 93 -231 187 -296 74 -51 283 -109 519 -145 136 -21 599 -30 780 -15
481 40 1173 179 1374 277 136 67 234 196 266 352 15 72 15 94 -5 252 -5 41
-12 100 -15 130 -17 181 -17 169 2 164 10 -2 88 -15 173 -29z m5710 -8015
c251 -586 277 -640 329 -704 622 -767 2742 -1397 5891 -1750 649 -73 1534
-147 1945 -163 167 -6 172 -5 295 25 249 62 497 93 744 93 271 0 391 -15 626
-79 l135 -37 465 2 c491 1 596 -6 729 -46 182 -56 258 -170 232 -348 -13 -90
-78 -293 -124 -388 -67 -138 -193 -274 -391 -421 -144 -108 -209 -144 -396
-219 -556 -224 -979 -258 -1402 -115 -115 39 -326 142 -433 210 -123 79 -210
120 -309 146 -101 26 -167 27 -671 5 -126 -5 -315 -12 -420 -16 -104 -3 -253
-8 -330 -10 -77 -3 -234 -7 -350 -10 -115 -3 -280 -7 -365 -10 -161 -5 -311
-9 -990 -25 -223 -5 -488 -12 -590 -15 -102 -3 -291 -7 -420 -10 -129 -3 -323
-7 -430 -10 -107 -3 -301 -7 -430 -10 -129 -3 -314 -8 -410 -10 -96 -2 -314
-7 -485 -10 -170 -4 -348 -8 -395 -10 -302 -13 -1058 -16 -1180 -6 -849 75
-1613 396 -2245 942 -142 123 -363 353 -480 499 -214 267 -300 409 -615 1010
-128 245 -235 448 -237 453 -2 4 26 4 64 1 92 -8 340 12 498 41 634 117 1184
481 1543 1020 92 138 209 375 261 529 41 119 45 127 56 105 7 -13 135 -310
285 -659z m7393 -446 c389 -252 405 -264 442 -324 64 -105 151 -160 255 -160
25 0 57 -13 105 -43 60 -37 1427 -922 1795 -1161 69 -45 225 -146 348 -225
122 -79 222 -148 222 -152 0 -4 -136 -7 -302 -5 -252 2 -312 5 -358 19 -111
35 -268 68 -390 82 -141 17 -428 19 -570 5 -52 -6 -122 -13 -155 -16 l-60 -6
-550 287 c-448 234 -557 294 -589 328 -21 23 -52 56 -68 74 -42 46 -93 66
-183 73 -78 6 -87 10 -280 111 -110 57 -226 118 -257 134 -32 17 -58 35 -58
40 0 6 44 84 98 175 53 91 183 310 286 488 104 177 191 322 193 322 3 0 37
-21 76 -46z m-1358 -150 c452 -273 570 -350 573 -372 4 -30 -14 -52 -43 -52
-20 0 -190 101 -613 363 -62 38 -117 78 -123 88 -17 33 16 74 51 63 8 -3 78
-43 155 -90z m4019 -1310 c252 -48 468 -187 595 -384 36 -56 107 -208 99 -215
-2 -2 -216 135 -476 304 -470 304 -473 306 -435 312 47 8 114 2 217 -17z
m1669 -1350 c133 -86 244 -158 246 -160 3 -3 -109 -229 -195 -392 -29 -55 -21
-86 24 -90 38 -4 34 -10 157 232 50 96 93 175 97 173 9 -3 647 -711 648 -718
0 -3 -93 15 -207 41 -115 26 -293 67 -398 90 -406 90 -375 78 -874 342 l-60
32 50 58 c72 82 134 180 165 260 15 37 31 68 36 68 4 0 76 -43 160 -95 84 -52
160 -95 169 -95 9 0 24 9 34 20 32 35 8 59 -169 169 -91 56 -166 106 -166 109
0 10 34 112 37 112 2 0 112 -70 246 -156z"/>
<path d="M28338 10318 c-29 -22 -328 -528 -328 -554 0 -27 37 -51 63 -41 19 7
337 536 337 559 0 19 -26 48 -44 48 -7 0 -19 -6 -28 -12z"/>
<path d="M28711 10081 c-22 -22 -26 -38 -13 -57 6 -10 175 -118 992 -630 91
-57 175 -104 186 -104 43 0 60 53 27 82 -23 20 -1133 715 -1155 723 -10 4 -24
-1 -37 -14z"/>
<path d="M14416 40548 c-10 -79 -27 -201 -37 -273 -10 -71 -19 -136 -19 -142
0 -10 579 -13 2860 -13 1573 0 2860 3 2860 8 0 4 5 36 10 72 18 125 60 458 60
474 0 15 -243 16 -2858 16 l-2858 0 -18 -142z"/>
<path d="M25186 40463 c-10 -71 -26 -195 -37 -278 -10 -82 -21 -160 -24 -172
l-5 -23 604 0 c567 0 605 1 610 18 2 9 7 42 11 72 4 30 17 134 30 230 13 96
27 199 30 228 l7 52 -605 0 -604 0 -17 -127z"/>
<path d="M29355 39920 c-132 -34 -220 -76 -321 -152 l-51 -38 -885 0 c-773 0
-887 -2 -898 -15 -12 -14 -90 -554 -90 -620 0 -17 5 -36 12 -43 9 -9 199 -12
795 -12 l783 0 0 -1112 c0 -612 3 -1130 6 -1150 l7 -38 -936 0 c-883 0 -936
-1 -941 -17 -2 -10 -12 -74 -21 -143 -9 -69 -25 -187 -36 -263 -10 -76 -19
-147 -19 -157 0 -20 17 -20 1222 -20 l1221 0 71 -24 c39 -14 100 -30 136 -35
45 -8 1075 -11 3270 -11 l3206 0 99 -147 c55 -82 101 -151 103 -155 2 -5
-1553 -9 -3455 -10 l-3458 -3 -32 -235 c-17 -129 -34 -263 -38 -297 l-7 -63
3703 0 3704 0 127 -188 127 -187 -1664 -3 c-916 -1 -1665 -4 -1665 -7 0 -3 -9
-71 -20 -153 -11 -81 -27 -199 -36 -262 -8 -63 -18 -130 -21 -147 l-5 -33
2871 0 2871 0 2 78 c0 42 2 88 3 102 1 14 5 114 9 223 l8 197 -1071 0 -1071 0
0 190 0 190 1250 0 1250 0 0 63 c0 34 3 169 7 300 l6 237 -1257 0 -1256 0 0
154 0 154 188 4 c174 4 193 7 272 33 l85 29 560 6 559 5 7 40 c4 22 14 96 23
165 9 69 25 185 35 258 l18 132 -363 0 -363 0 4 33 c12 90 14 120 15 210 l0
97 1009 0 c808 0 1011 3 1019 13 6 7 15 48 21 92 6 44 24 179 40 300 36 257
36 249 15 269 -14 14 -124 16 -1060 16 l-1044 0 0 165 c0 164 0 165 23 165 12
0 819 1 1792 3 l1770 2 37 270 c20 149 37 282 37 298 l1 27 -1830 0 -1830 0
-1 143 c0 78 -2 154 -3 170 l-2 27 522 0 c438 0 525 2 537 14 9 9 22 77 36
183 12 92 31 232 42 310 15 106 17 147 9 163 -11 20 -17 20 -707 20 l-696 0
-51 39 c-80 61 -152 100 -250 134 l-91 32 -3965 2 c-3808 1 -3968 1 -4035 -17z
m7945 -81 c159 -25 276 -86 396 -204 67 -66 89 -97 127 -175 88 -179 81 -62
85 -1414 3 -1298 3 -1291 -51 -1424 -41 -101 -87 -172 -167 -253 -61 -61 -94
-85 -170 -123 -138 -67 -183 -76 -416 -78 -153 -2 -205 -6 -217 -17 -16 -12
-17 -73 -17 -684 l0 -671 -108 157 c-59 86 -151 221 -204 299 -53 79 -133 197
-178 263 -45 66 -139 203 -208 305 -207 305 -230 337 -254 344 -13 3 -1475 6
-3249 6 -3134 0 -3228 1 -3300 19 -219 56 -398 200 -494 395 -80 163 -75 64
-75 1429 l0 1219 30 91 c93 276 330 475 615 517 83 12 7780 12 7855 -1z
m-8447 -257 c-75 -98 -153 -306 -153 -408 l0 -34 -746 0 -746 0 6 28 c3 15 14
101 26 192 11 91 24 188 28 215 l7 50 790 5 c435 3 798 3 807 2 13 -3 10 -12
-19 -50z m10197 31 c0 -10 -13 -117 -30 -238 -16 -121 -30 -223 -30 -227 0 -5
-220 -8 -489 -8 -540 0 -501 -5 -501 63 0 90 -73 294 -140 395 l-22 32 606 0
c570 0 606 -1 606 -17z m943 -2185 c-18 -134 -33 -246 -33 -250 0 -5 -439 -8
-975 -8 l-975 0 0 250 0 250 1008 0 1008 0 -33 -242z"/>
<path d="M33539 39127 c-20 -11 -84 -169 -436 -1087 -226 -591 -412 -1085
-412 -1096 -1 -29 22 -46 55 -42 27 3 38 32 437 1073 226 589 412 1086 415
1107 5 45 -20 64 -59 45z"/>
<path d="M31885 38271 c-286 -130 -530 -243 -542 -249 -28 -15 -30 -53 -5 -74
9 -8 58 -33 107 -55 50 -23 285 -129 522 -237 238 -108 444 -196 458 -196 32
0 52 38 37 66 -6 11 -74 47 -154 83 -364 163 -804 363 -810 370 -4 4 61 38
145 75 493 223 804 369 815 383 6 9 12 22 12 29 0 18 -29 44 -48 44 -9 -1
-251 -108 -537 -239z"/>
<path d="M33896 38494 c-20 -20 -20 -48 -1 -64 15 -12 165 -82 717 -333 136
-61 244 -115 240 -118 -4 -4 -218 -102 -477 -219 -258 -117 -476 -217 -482
-223 -16 -12 -17 -49 -1 -65 7 -7 22 -12 34 -12 13 0 227 93 476 206 249 113
485 219 523 236 89 40 110 58 101 91 -5 21 -76 56 -546 271 -297 135 -547 246
-554 246 -8 0 -22 -7 -30 -16z"/>
<path d="M15101 39756 c-7 -8 -18 -61 -26 -117 -7 -57 -26 -198 -41 -312 -20
-152 -25 -213 -17 -225 9 -16 221 -17 3051 -20 2960 -2 3042 -2 3051 17 6 10
29 155 51 322 31 227 38 310 31 326 l-11 23 -3039 0 c-2588 0 -3040 -2 -3050
-14z m5999 -106 c0 -14 -14 -124 -30 -245 -16 -121 -30 -221 -30 -222 0 -2
-1334 -3 -2965 -3 l-2964 0 4 28 c4 23 22 156 51 382 3 25 8 54 10 65 5 20 13
20 2964 20 l2960 0 0 -25z"/>
<path d="M25085 39681 c-4 -7 -34 -220 -71 -501 -3 -25 -8 -55 -11 -67 l-5
-23 605 0 605 0 6 28 c6 28 76 549 76 564 0 11 -1198 10 -1205 -1z"/>
<path d="M15687 38778 c-25 -19 -107 -638 -88 -662 12 -15 312 -16 3550 -14
l3536 3 11 25 c7 14 30 158 52 320 35 259 38 298 26 318 l-14 22 -3528 0
c-2807 0 -3532 -3 -3545 -12z m6989 -129 c-3 -23 -17 -130 -31 -238 -14 -108
-28 -202 -30 -208 -3 -10 -706 -13 -3465 -13 l-3462 0 6 28 c3 15 17 115 31
222 14 107 28 207 31 223 l6 27 3460 0 3460 0 -6 -41z"/>
<path d="M24946 38673 c-3 -16 -8 -48 -11 -73 -3 -25 -18 -144 -35 -265 -16
-121 -30 -223 -30 -228 0 -4 270 -7 600 -7 330 0 600 2 600 4 0 9 71 536 76
564 l6 32 -600 0 -600 0 -6 -27z"/>
<path d="M17747 37793 c-10 -12 -24 -80 -42 -213 -14 -107 -33 -248 -42 -313
-15 -110 -15 -119 1 -135 16 -16 215 -17 2966 -17 2225 0 2952 3 2961 12 10
10 87 536 91 622 3 66 251 61 -2977 61 -2789 0 -2943 -1 -2958 -17z m5833 -95
c-1 -7 -15 -119 -33 -248 l-32 -235 -2878 -3 -2877 -2 0 27 c0 16 14 125 30
243 16 118 30 218 30 223 0 4 1296 7 2880 7 2298 0 2880 -3 2880 -12z"/>
<path d="M24835 37698 c-5 -26 -75 -550 -75 -567 0 -8 156 -11 569 -11 l568 0
12 93 c31 241 62 464 66 485 l5 22 -570 0 -570 0 -5 -22z"/>
<path d="M13976 36723 c-4 -32 -22 -165 -40 -296 -18 -130 -30 -239 -28 -242
3 -3 936 -5 2074 -5 1466 0 2068 3 2068 11 0 17 70 542 75 567 l5 22 -2074 0
-2073 0 -7 -57z"/>
<path d="M24682 36658 c-28 -199 -42 -299 -52 -378 -6 -47 -13 -97 -16 -112
l-6 -28 580 0 580 0 6 28 c3 15 10 65 16 112 6 47 22 165 35 262 14 97 25 182
25 188 0 7 -184 10 -578 10 l-579 0 -11 -82z"/>
<path d="M16854 35840 c-18 -7 -24 -22 -33 -77 -18 -115 -72 -524 -73 -556 -2
-61 -254 -57 3243 -57 3040 0 3208 1 3227 18 17 15 26 59 61 324 23 168 38
314 35 323 -4 9 -18 21 -31 26 -31 12 -6400 11 -6429 -1z m6356 -117 c0 -16
-4 -55 -9 -88 -5 -33 -12 -82 -16 -110 -3 -27 -13 -95 -20 -150 -8 -55 -15
-106 -15 -112 0 -10 -637 -13 -3151 -13 l-3152 0 6 38 c4 20 18 127 32 237 15
110 28 206 30 213 4 9 642 12 3150 12 l3145 0 0 -27z"/>
<path d="M24537 35628 c-25 -191 -37 -275 -48 -344 -5 -33 -9 -75 -9 -92 l0
-32 575 0 c452 0 576 3 579 13 5 15 77 558 76 575 0 9 -122 12 -578 12 l-578
0 -17 -132z"/>
<path d="M13770 34813 c0 -11 -69 -521 -75 -560 l-6 -33 2074 0 2073 0 28 218
c16 119 30 226 32 237 2 11 7 48 10 83 l7 62 -2072 0 c-1139 0 -2071 -3 -2071
-7z"/>
<path d="M24486 34798 c-3 -13 -19 -131 -36 -263 -18 -132 -34 -257 -37 -277
l-5 -38 550 0 549 0 23 173 c12 94 30 226 39 292 12 83 14 122 7 127 -6 4
-253 8 -548 8 l-538 0 -4 -22z"/>
<path d="M16620 33858 c-5 -13 -23 -131 -40 -263 -17 -132 -35 -267 -40 -299
-8 -49 -7 -64 5 -83 l15 -23 3220 0 3220 0 14 23 c7 12 19 65 26 117 6 52 13
106 15 120 2 14 11 79 20 145 16 123 20 153 30 217 4 26 1 41 -10 52 -15 15
-300 16 -3241 16 l-3224 0 -10 -22z m6380 -80 c0 -7 -14 -120 -32 -250 l-32
-238 -3148 0 c-2223 0 -3148 3 -3148 11 0 6 14 112 30 236 17 124 30 231 30
239 0 12 453 14 3150 14 2513 0 3150 -3 3150 -12z"/>
<path d="M24344 33832 c-6 -4 -23 -99 -38 -212 -15 -113 -33 -244 -40 -292
-11 -73 -11 -88 0 -92 8 -3 263 -6 568 -6 435 0 555 2 563 12 13 17 87 573 78
587 -7 13 -1112 15 -1131 3z"/>
<path d="M33261 33823 c-5 -10 -14 -56 -20 -103 -6 -47 -24 -186 -41 -309 -29
-211 -30 -225 -14 -242 17 -18 83 -19 2434 -19 2080 0 2419 2 2429 14 7 8 28
128 47 268 47 343 50 374 34 393 -11 13 -277 15 -2436 15 -2298 0 -2424 -1
-2433 -17z m4746 -320 c-18 -133 -35 -244 -38 -247 -7 -7 -4680 -8 -4687 -1
-3 3 9 109 27 237 17 128 31 236 31 240 0 6 4675 18 4697 12 1 0 -12 -109 -30
-241z"/>
<path d="M13376 32808 c-5 -30 -47 -343 -62 -458 -3 -25 -7 -53 -10 -62 -5
-17 110 -18 2314 -18 l2319 0 22 168 c29 215 30 226 42 297 5 33 9 70 9 83 l0
22 -2315 0 -2314 0 -5 -32z"/>
<path d="M34600 32816 c0 -9 -60 -454 -70 -519 -6 -38 -8 -72 -5 -78 8 -12
4782 -12 4790 0 8 14 84 584 79 593 -5 8 -4794 12 -4794 4z"/>
<path d="M24152 32718 c-7 -46 -23 -163 -37 -261 -14 -97 -25 -189 -25 -202
l0 -25 579 0 578 0 7 58 c3 31 19 154 36 272 16 118 30 221 30 228 0 9 -122
12 -578 12 l-579 0 -11 -82z"/>
<path d="M14670 31900 c-11 -11 -20 -26 -20 -34 0 -8 -18 -146 -40 -306 -28
-210 -37 -298 -29 -311 9 -18 56 -19 1727 -19 952 0 1723 4 1731 9 9 6 25 98
52 297 21 159 41 301 44 317 3 19 -1 33 -15 47 -20 20 -39 20 -1725 20 -1692
0 -1705 0 -1725 -20z m3360 -85 c0 -7 -49 -380 -58 -440 l-7 -50 -1643 -3
-1642 -2 0 21 c0 11 11 98 24 192 14 95 28 198 31 230 l7 57 1644 0 c904 0
1644 -2 1644 -5z"/>
<path d="M26148 31863 c-10 -12 -25 -84 -42 -213 -15 -107 -34 -248 -43 -312
-13 -95 -14 -120 -3 -133 11 -13 620 -15 5975 -15 5129 0 5964 2 5974 14 11
13 91 564 91 627 0 18 -7 32 -19 39 -14 7 -1887 10 -5969 10 -5653 0 -5950 -1
-5964 -17z m11847 -115 c-3 -18 -16 -118 -30 -223 -14 -104 -28 -202 -31 -217
l-6 -28 -5884 0 -5884 0 0 23 c0 20 44 368 56 445 l5 32 5890 0 5890 0 -6 -32z"/>
<path d="M24087 31817 c-3 -12 -18 -112 -32 -222 -14 -110 -30 -227 -35 -260
-6 -33 -10 -70 -10 -82 l0 -23 545 0 c424 0 547 3 550 13 6 18 75 543 75 572
l0 25 -544 0 -544 0 -5 -23z"/>
<path d="M16032 30923 c-19 -16 -26 -55 -63 -332 l-42 -315 23 -18 c21 -17 88
-18 1651 -18 1613 0 1629 0 1649 20 11 11 20 26 20 33 0 13 14 122 54 415 14
100 23 189 19 197 -3 9 -13 20 -23 25 -12 6 -624 10 -1643 10 -1535 0 -1626
-1 -1645 -17z m3208 -110 c0 -14 -4 -54 -9 -87 -6 -34 -14 -95 -20 -136 -5
-41 -15 -114 -22 -162 l-12 -88 -1572 0 -1572 0 3 23 c2 12 15 108 29 212 14
105 28 207 31 228 l6 37 1569 0 1569 0 0 -27z"/>
<path d="M28487 30882 c-15 -17 -20 -49 -84 -521 l-16 -124 22 -18 c22 -18 79
-19 1593 -16 1541 2 1570 2 1584 21 18 25 18 41 -2 60 -14 14 -169 16 -1555
16 l-1539 0 5 23 c2 12 14 94 25 182 11 88 26 190 31 228 l11 67 1393 0 c1254
0 1395 2 1409 16 22 22 20 50 -6 68 -20 14 -173 16 -1439 16 -1339 0 -1417 -1
-1432 -18z"/>
<path d="M32630 30880 c-25 -25 -25 -42 -2 -63 17 -16 209 -17 2556 -17 l2538
0 59 46 c32 26 59 49 59 50 0 2 -1168 4 -2595 4 -2582 0 -2595 0 -2615 -20z"/>
<path d="M23930 30843 c0 -5 -16 -132 -36 -285 -20 -152 -34 -283 -31 -292 6
-15 61 -16 572 -16 l565 1 5 22 c5 24 75 552 75 567 0 6 -209 10 -575 10 -316
0 -575 -3 -575 -7z"/>
<path d="M33027 30279 c-19 -26 -11 -58 17 -69 11 -5 935 -9 2052 -9 l2031 -1
42 45 c22 24 41 47 41 50 0 3 -938 5 -2084 5 l-2085 0 -14 -21z"/>
<path d="M17323 29950 c-26 -10 -22 7 -68 -335 -41 -306 -42 -330 -16 -345 31
-16 4132 -14 4155 3 14 10 25 69 56 302 22 160 40 304 40 322 0 68 175 63
-2095 62 -1162 0 -2060 -4 -2072 -9z m4063 -122 c-5 -28 -25 -184 -55 -413
l-6 -50 -2002 -3 c-1102 -1 -2003 0 -2003 2 0 2 11 86 25 187 13 101 27 209
31 239 3 30 8 58 11 63 2 4 904 7 2005 7 l2000 0 -6 -32z"/>
<path d="M33562 29905 c-24 -17 -29 -54 -10 -73 9 -9 390 -12 1653 -12 l1641
0 32 45 c18 25 32 48 32 50 0 3 -748 5 -1663 5 -1493 0 -1665 -1 -1685 -15z"/>
<path d="M23756 29783 c-3 -21 -17 -126 -31 -233 -14 -107 -29 -219 -34 -248
-4 -29 -5 -55 -1 -57 3 -2 265 -3 581 -2 l574 2 37 270 c20 149 37 278 37 288
1 16 -33 17 -578 17 l-579 0 -6 -37z"/>
<path d="M8539 29263 c-53 -54 -99 -106 -103 -116 -8 -25 9 -53 36 -61 19 -5
39 11 126 99 57 59 102 114 102 125 0 23 -26 50 -48 50 -10 0 -61 -44 -113
-97z"/>
<path d="M7842 29328 c-27 -27 -11 -55 86 -151 100 -100 133 -117 162 -82 22
27 2 61 -94 153 -95 92 -126 108 -154 80z"/>
<path d="M33907 29299 c-18 -24 -11 -56 13 -69 11 -6 514 -10 1283 -10 l1265
0 20 27 c10 16 24 38 31 51 l12 22 -1305 0 -1305 0 -14 -21z"/>
<path d="M28190 28962 c-21 -17 -26 -43 -56 -268 -50 -370 -51 -390 -26 -403
15 -8 639 -11 2235 -11 2132 0 2215 1 2230 18 21 23 22 46 1 66 -14 14 -227
16 -2200 16 -1201 0 -2184 3 -2183 8 0 4 14 115 32 247 l32 240 1804 3 c1352
1 1808 5 1818 14 21 17 12 61 -17 75 -20 10 -401 13 -1836 13 -1738 0 -1813
-1 -1834 -18z"/>
<path d="M23656 28913 c-11 -38 -77 -556 -72 -569 8 -20 1124 -20 1131 -1 2 7
16 102 30 212 14 110 30 230 35 267 6 37 10 76 10 87 0 21 -1 21 -564 21 -529
0 -565 -1 -570 -17z"/>
<path d="M12855 28911 c-6 -10 -75 -512 -75 -548 l0 -23 2574 0 2573 0 17 133
c9 72 26 194 37 270 10 76 19 147 19 158 0 19 -26 19 -2569 19 -1536 0 -2572
-4 -2576 -9z"/>
<path d="M8462 28734 c-12 -8 -22 -25 -22 -37 0 -30 187 -217 217 -217 26 0
53 25 53 48 0 17 -174 193 -209 211 -13 7 -24 6 -39 -5z"/>
<path d="M8039 28731 c-20 -7 -209 -207 -209 -220 0 -5 8 -19 18 -31 29 -36
58 -20 160 90 68 72 93 106 90 121 -4 27 -37 49 -59 40z"/>
<path d="M12896 27974 c-9 -8 -16 -23 -16 -32 0 -17 -11 -100 -55 -421 -23
-172 -24 -185 -9 -203 17 -17 155 -18 4240 -18 l4224 0 13 23 c8 12 20 65 26
117 6 52 24 189 39 303 24 178 26 211 15 228 -14 19 -63 19 -4238 19 -3826 0
-4225 -1 -4239 -16z m8379 -86 c3 -3 -6 -88 -20 -189 -13 -101 -27 -209 -31
-239 -3 -30 -7 -56 -8 -57 -4 -5 -8299 -3 -8303 1 -3 2 9 109 26 238 17 128
31 236 31 240 0 5 1854 9 4119 10 4448 3 4179 3 4186 -4z"/>
<path d="M23510 27946 c0 -4 -59 -439 -75 -558 l-5 -38 580 0 c319 0 580 1
580 3 0 2 18 136 40 298 22 162 40 295 40 297 0 1 -261 2 -580 2 -319 0 -580
-2 -580 -4z"/>
<path d="M16447 26988 c-14 -22 -87 -536 -87 -608 0 -20 5 -41 12 -48 9 -9
565 -12 2443 -12 1336 0 2436 4 2443 8 14 10 21 50 57 322 14 107 30 222 35
254 8 48 7 64 -5 83 l-15 23 -2435 0 -2435 0 -13 -22z m4803 -85 c0 -11 -62
-478 -64 -480 -4 -5 -263 -5 -2385 -4 l-2343 1 4 33 c3 17 17 128 33 245 l29
212 2363 0 c1300 0 2363 -3 2363 -7z"/>
<path d="M23370 26961 c0 -11 -68 -526 -75 -563 l-4 -28 579 0 579 0 5 33 c19
116 76 540 76 558 0 5 -251 9 -580 9 -333 0 -580 -4 -580 -9z"/>
<path d="M27956 26954 c-9 -8 -16 -21 -16 -27 0 -7 -7 -61 -15 -122 -37 -276
-65 -488 -65 -491 0 -1 7 -10 16 -18 14 -15 315 -16 3168 -16 3101 0 3153 0
3170 19 23 25 13 59 -21 72 -15 5 -1199 9 -3120 9 -1703 0 -3099 2 -3102 5 -4
5 57 476 63 482 1 2 1338 3 2970 3 2014 0 2974 3 2987 10 22 12 26 59 7 78 -9
9 -694 12 -3019 12 -2721 0 -3009 -1 -3023 -16z"/>
<path d="M17635 26103 c-11 -3 -24 -8 -28 -12 -9 -9 -87 -572 -87 -627 0 -23
6 -37 19 -44 14 -7 759 -10 2339 -10 2195 0 2321 1 2341 18 19 15 26 52 63
331 l42 313 -23 19 c-22 18 -88 19 -2335 18 -1271 -1 -2320 -3 -2331 -6z
m4580 -115 c-2 -13 -16 -111 -30 -218 -14 -107 -27 -210 -30 -227 l-6 -33
-2266 0 -2265 0 5 33 c4 17 18 120 32 227 14 107 27 205 30 218 l5 22 2265 0
2265 0 -5 -22z"/>
<path d="M23305 26008 c-7 -31 -75 -539 -75 -560 0 -17 33 -18 545 -18 428 0
547 3 550 13 6 17 75 537 75 565 l0 22 -545 0 -545 0 -5 -22z"/>
<path d="M23157 25043 c-5 -7 -21 -119 -62 -433 -9 -63 -18 -125 -21 -137 l-4
-23 575 0 575 0 5 23 c5 25 75 548 75 566 0 12 -1136 16 -1143 4z"/>
<path d="M15720 24993 c0 -5 57 -140 127 -300 l128 -293 1615 3 1615 2 12 80
c6 44 16 118 22 165 7 47 20 145 30 218 l18 132 -1784 0 c-981 0 -1783 -3
-1783 -7z"/>
<path d="M16281 24061 c-32 -9 -44 -43 -25 -70 l15 -21 1955 0 c1710 0 1954
-2 1954 -15 0 -12 -19 -162 -35 -270 -2 -16 -10 -72 -16 -122 l-12 -93 -1837
0 c-1415 0 -1839 -3 -1848 -12 -17 -17 -15 -54 4 -72 14 -14 198 -16 1875 -16
1772 0 1860 1 1877 18 14 14 24 66 46 232 16 118 34 257 42 308 15 104 12 119
-23 133 -28 10 -3934 11 -3972 0z"/>
<path d="M27573 24020 c-25 -10 -27 -17 -52 -220 -11 -85 -27 -204 -36 -264
-22 -159 -21 -184 11 -196 16 -7 1787 -10 4985 -10 4946 0 4959 0 4979 20 25
25 25 42 2 63 -17 16 -376 17 -4955 17 -3943 0 -4937 3 -4936 13 0 6 14 118
32 247 l32 235 4929 3 c3624 1 4933 5 4942 13 21 17 17 67 -5 79 -24 13 -9896
13 -9928 0z"/>
<path d="M22976 23978 c-3 -18 -19 -136 -36 -263 -16 -126 -32 -240 -35 -253
l-5 -22 582 2 583 3 31 230 c17 127 34 254 38 283 l7 52 -580 0 -579 0 -6 -32z"/>
<path d="M43655 20768 c2 -13 6 -86 10 -163 3 -77 8 -162 10 -190 2 -27 7
-106 10 -175 3 -69 8 -152 10 -185 2 -33 7 -107 10 -165 3 -58 7 -136 10 -175
2 -38 7 -117 10 -175 3 -58 8 -139 10 -180 3 -41 12 -194 20 -340 8 -146 17
-292 20 -325 2 -33 7 -109 10 -170 3 -60 7 -137 10 -170 2 -33 7 -105 10 -160
8 -152 85 -1400 90 -1480 3 -38 12 -176 20 -305 9 -129 18 -266 20 -305 3 -38
14 -207 25 -375 11 -168 22 -325 25 -350 2 -25 7 -88 10 -140 3 -52 15 -205
25 -340 11 -135 24 -317 30 -405 12 -165 15 -907 6 -1075 -3 -52 -8 -151 -11
-220 -23 -502 -75 -1074 -170 -1870 -34 -280 -160 -1154 -170 -1169 -2 -4
-104 -1 -227 5 -122 7 -286 15 -363 18 -77 4 -167 9 -200 11 -59 4 -143 9
-380 21 -66 3 -122 8 -124 10 -4 4 -11 184 -25 689 -4 116 -8 253 -11 305 -3
52 -7 178 -10 280 -3 102 -7 232 -10 290 -3 58 -7 175 -10 260 -3 85 -7 207
-10 270 -10 244 -16 369 -20 465 -3 55 -7 161 -10 235 -7 159 -33 674 -40 775
-2 39 -7 117 -10 175 -9 154 -28 401 -41 533 -4 35 -22 95 -46 150 -129 297
-325 822 -421 1127 -156 496 -223 769 -302 1235 -93 553 -222 1104 -431 1845
-143 505 -326 1104 -345 1127 -14 17 -53 17 -67 0 -6 -7 -13 -44 -16 -82 -6
-68 -19 -316 -41 -760 -3 -55 -7 -138 -10 -185 -3 -47 -7 -128 -10 -180 -3
-52 -7 -129 -10 -170 -3 -41 -7 -131 -10 -200 -3 -69 -8 -156 -10 -195 -3 -38
-16 -286 -30 -550 -13 -264 -27 -518 -30 -565 -2 -47 -9 -173 -15 -280 -5
-107 -12 -235 -15 -285 -12 -214 -25 -468 -30 -565 -3 -58 -7 -141 -10 -185
-3 -44 -7 -127 -10 -185 -3 -58 -8 -150 -10 -205 -3 -55 -8 -136 -10 -180 -3
-44 -12 -208 -20 -365 -22 -419 -25 -478 -30 -550 -2 -36 -7 -123 -10 -195 -3
-71 -8 -161 -10 -200 -3 -38 -21 -365 -40 -725 -19 -360 -37 -695 -40 -745 -3
-49 -9 -173 -15 -275 -5 -102 -12 -228 -15 -280 -3 -52 -8 -138 -10 -190 -3
-52 -8 -131 -10 -175 -3 -44 -12 -206 -20 -360 -32 -604 -51 -910 -57 -921 -9
-14 -613 1 -773 20 -248 29 -428 70 -551 126 l-61 27 -46 239 c-228 1173 -409
2389 -487 3269 -11 127 -22 250 -24 275 -3 25 -8 101 -11 170 -4 69 -9 136
-11 150 -3 14 -8 188 -11 388 -5 326 -2 470 22 987 17 364 26 1402 21 2400 -7
1296 -17 2131 -27 2139 -2 2 -23 6 -47 10 l-43 6 8 -732 c10 -919 10 -2893 0
-3423 -7 -398 -11 -505 -27 -790 -11 -180 -5 -822 9 -1025 16 -226 21 -296 32
-425 10 -120 54 -564 64 -640 3 -22 21 -168 40 -325 56 -446 101 -754 190
-1295 124 -753 249 -1410 274 -1439 17 -20 107 -64 176 -86 22 -7 43 -18 47
-24 7 -10 12 -216 5 -216 -2 0 -23 10 -48 22 -67 33 -130 29 -206 -11 -84 -45
-177 -124 -443 -376 -372 -352 -477 -439 -750 -623 -518 -350 -865 -723 -888
-955 -10 -98 32 -173 147 -261 167 -128 445 -229 711 -257 135 -14 370 -7 490
15 301 56 1027 215 1690 371 107 25 218 51 245 56 121 26 233 119 278 229 20
51 22 69 21 265 -2 210 -12 384 -39 655 -27 258 -70 552 -86 583 -6 10 -21 17
-39 17 -35 0 -34 -18 -18 208 l12 172 108 0 c95 0 110 2 128 20 11 11 20 31
20 45 0 14 11 222 25 462 13 241 27 485 30 543 12 225 24 446 30 540 2 41 7
129 10 195 3 66 7 152 10 190 6 102 14 244 20 370 3 61 7 144 10 185 3 41 7
122 10 180 3 58 7 139 10 180 2 41 7 125 10 185 3 61 7 146 10 190 3 44 7 125
10 180 3 55 7 141 10 190 3 50 7 135 10 190 9 195 16 311 20 380 4 66 18 326
30 555 3 58 8 141 10 185 6 97 23 418 30 575 3 63 8 140 10 170 2 30 7 114 10
185 3 72 8 159 10 195 2 36 7 117 10 180 3 63 8 149 10 190 2 41 7 125 10 185
11 211 15 301 20 380 6 112 13 238 25 465 5 107 12 233 15 280 2 47 7 137 10
200 3 63 8 147 10 185 3 39 18 329 35 645 16 316 32 613 36 660 l6 85 34 -110
c301 -968 534 -1899 648 -2590 19 -115 47 -266 61 -335 118 -564 362 -1313
648 -1987 49 -116 55 -137 61 -228 4 -55 9 -116 12 -135 2 -19 11 -145 19
-280 8 -135 17 -279 20 -320 2 -41 7 -127 10 -190 3 -63 8 -158 10 -210 6 -97
31 -680 40 -915 3 -71 7 -182 10 -245 3 -63 7 -189 10 -280 3 -91 7 -203 10
-250 2 -47 7 -184 10 -305 3 -121 8 -251 10 -290 2 -38 8 -196 11 -350 4 -154
8 -287 9 -295 1 -8 2 -56 3 -106 1 -54 7 -97 15 -106 11 -15 75 -26 160 -28
16 0 17 -18 17 -237 l0 -238 -30 45 c-35 53 -61 66 -89 42 -18 -15 -22 -37
-30 -167 -6 -82 -20 -274 -31 -425 -41 -571 -48 -662 -66 -795 -19 -150 -53
-325 -109 -565 -24 -102 -46 -205 -50 -228 -15 -100 36 -232 121 -312 67 -63
123 -87 244 -105 217 -32 335 -39 675 -39 480 -1 740 27 857 91 121 66 202
217 192 357 -2 26 -38 184 -79 351 -165 671 -315 1121 -481 1445 -62 121 -156
270 -203 319 l-31 34 20 185 c11 102 20 187 20 189 0 3 66 1 148 -3 174 -9
191 -9 204 4 16 16 142 845 183 1207 3 28 7 61 10 75 6 34 60 521 85 765 20
206 55 621 64 780 3 50 8 133 12 185 18 281 22 472 19 930 -2 278 -6 523 -9
545 -3 22 -10 101 -16 175 -6 74 -13 162 -16 195 -4 50 -19 266 -59 840 -3 39
-10 142 -15 230 -6 88 -13 185 -15 215 -2 30 -7 96 -10 145 -3 50 -12 196 -20
325 -23 361 -64 1025 -70 1120 -3 47 -10 159 -15 250 -6 91 -12 206 -15 255
-3 50 -7 119 -10 155 -2 36 -7 110 -10 165 -9 156 -54 941 -59 1030 -7 102
-13 214 -26 440 -5 99 -12 216 -15 260 -2 44 -7 132 -10 195 -10 208 -12 217
-47 229 -50 18 -67 14 -63 -11z m-4655 -10568 c89 -26 399 -58 655 -69 l150
-6 -14 -212 -14 -211 -244 -103 c-206 -86 -246 -100 -254 -88 -27 50 -200 270
-267 340 l-79 84 -6 138 c-6 136 -6 137 16 137 12 0 38 -5 57 -10z m3800 -94
c85 -4 169 -9 185 -11 17 -2 100 -7 185 -11 85 -3 157 -8 159 -10 4 -4 -48
-531 -55 -554 -3 -8 -24 19 -50 65 -54 96 -77 121 -118 134 -28 9 -189 33
-322 48 -68 7 -115 -10 -158 -58 l-36 -39 0 218 c0 120 2 221 5 224 3 3 16 4
28 3 12 -1 92 -6 177 -9z m-4049 -157 c90 -45 283 -256 431 -469 46 -67 68
-90 84 -90 12 0 149 54 305 120 156 66 289 118 295 116 6 -2 14 -24 17 -48 58
-404 95 -831 98 -1138 2 -109 -1 -132 -21 -177 -24 -57 -92 -126 -143 -148
-34 -14 -653 -158 -1227 -285 -476 -106 -532 -117 -860 -176 -72 -12 -344 -6
-445 10 -268 44 -485 134 -619 257 -69 63 -78 78 -78 137 0 184 369 573 847
894 275 185 350 247 740 613 284 267 384 352 450 385 51 25 76 25 126 -1z
m4181 -297 c75 -10 143 -24 152 -31 9 -8 48 -72 88 -143 103 -189 126 -192
188 -25 l33 89 48 -74 c147 -228 305 -622 439 -1093 73 -258 210 -816 210
-857 0 -99 -68 -206 -160 -253 -171 -87 -1251 -101 -1536 -20 -109 31 -191
131 -201 243 -4 45 7 105 50 292 103 437 116 535 167 1260 12 157 24 329 27
383 3 54 9 99 12 102 4 2 29 -33 56 -78 44 -72 54 -82 82 -85 41 -4 44 4 73
152 15 78 30 126 42 138 22 22 53 22 230 0z"/>
<path d="M38148 9279 c-44 -25 -24 -53 178 -251 115 -113 205 -194 218 -196
28 -4 60 30 52 56 -8 24 -401 402 -418 402 -7 0 -21 -5 -30 -11z"/>
<path d="M39510 8474 c-474 -174 -1073 -334 -1460 -389 -63 -9 -126 -18 -140
-20 -14 -2 -99 -9 -190 -16 -331 -23 -610 18 -787 117 -71 40 -87 42 -107 13
-31 -45 15 -86 158 -143 146 -59 433 -101 611 -90 28 2 99 6 160 9 408 22 994
155 1620 369 121 41 252 88 290 103 62 25 70 31 73 58 4 29 -18 56 -42 54 -6
0 -90 -30 -186 -65z"/>
<path d="M42730 8370 c-20 -38 1 -70 47 -71 21 0 45 -2 53 -3 8 -2 139 -6 290
-10 151 -4 294 -9 316 -12 55 -6 90 20 80 59 -4 16 -15 29 -29 32 -30 6 -185
13 -488 21 l-257 7 -12 -23z"/>
<path d="M42465 7580 c-30 -33 -7 -66 57 -85 299 -89 714 -98 1118 -25 127 23
160 39 160 74 0 48 -21 52 -143 28 -207 -40 -287 -47 -537 -47 -260 0 -354 9
-522 51 -116 29 -111 29 -133 4z"/>
<path d="M37449 16038 c-85 -110 -323 -400 -468 -568 -672 -784 -1468 -1555
-2266 -2196 -1038 -834 -2113 -1504 -3280 -2044 -238 -111 -266 -130 -244
-172 17 -32 62 -20 236 59 1282 588 2522 1379 3648 2328 797 672 1596 1484
2252 2288 277 339 275 336 245 370 -31 35 -56 21 -123 -65z"/>
<path d="M42388 14589 c-22 -12 -23 -52 -2 -73 13 -14 49 -16 243 -16 208 0
229 2 244 18 22 24 21 45 -1 65 -16 15 -48 17 -243 17 -133 0 -231 -5 -241
-11z"/>
<path d="M38402 14328 c-7 -7 -12 -20 -12 -31 0 -10 44 -96 99 -191 500 -872
807 -1631 852 -2104 10 -112 18 -132 53 -132 36 0 46 20 46 89 0 365 -280
1121 -705 1906 -115 213 -242 433 -263 458 -17 20 -53 22 -70 5z"/>
<path d="M37149 14131 c-9 -3 -115 -109 -236 -236 -631 -661 -1373 -1318
-2118 -1875 -1134 -848 -2382 -1549 -3668 -2061 -170 -67 -190 -83 -162 -125
8 -13 22 -24 31 -24 18 0 134 45 359 138 2008 834 3796 2042 5391 3640 335
335 466 478 462 504 -4 26 -37 48 -59 39z"/>
<path d="M30010 11235 c-76 -25 -141 -82 -179 -158 -30 -59 -35 -77 -35 -140
1 -148 97 -269 239 -302 166 -39 322 54 370 220 42 142 -26 295 -159 360 -67
33 -171 41 -236 20z"/>
</g>
</svg>
